<?xml version="1.0" standalone="no"?>
<!DOCTYPE svg PUBLIC "-//W3C//DTD SVG 20010904//EN"
 "http://www.w3.org/TR/2001/REC-SVG-20010904/DTD/svg10.dtd">
<svg version="1.0" xmlns="http://www.w3.org/2000/svg"
 width="546.000000pt" height="546.000000pt" viewBox="0 0 546.000000 546.000000"
 preserveAspectRatio="xMidYMid meet">
<metadata>
Created by potrace 1.14, written by Peter Selinger 2001-2017
</metadata>
<g transform="translate(0.000000,546.000000) scale(0.100000,-0.100000)"
fill="#000000" stroke="none">
<path d="M2018 5178 c-115 -235 -325 -589 -402 -678 -11 -13 8 2 44 34 99 88
246 317 394 612 47 95 86 174 86 178 0 3 -11 6 -24 6 -20 0 -33 -20 -98 -152z"/>
<path d="M1170 3979 c-173 -173 -280 -268 -455 -399 -159 -119 -323 -224 -475
-305 -73 -39 -114 -66 -113 -75 1 -8 9 -35 18 -60 13 -33 16 -63 12 -113 -6
-66 -5 -68 16 -62 86 26 452 228 486 269 10 12 2 28 -40 86 -60 83 -71 60 94
190 283 220 531 461 586 568 12 24 21 45 19 46 -2 1 -68 -64 -148 -145z"/>
<path d="M5250 2961 c-156 -61 -463 -225 -624 -333 -219 -146 -414 -307 -615
-507 -373 -371 -639 -743 -898 -1255 l-125 -249 -104 6 c-135 9 -436 52 -533
77 -98 25 -295 91 -391 131 -189 79 -243 105 -355 171 -290 171 -416 268 -640
492 -235 236 -342 379 -509 679 -49 86 -101 190 -116 230 -15 39 -46 122 -70
182 -23 61 -56 163 -74 227 -19 68 -36 114 -42 110 -5 -4 -20 -33 -33 -66 -23
-56 -24 -66 -18 -205 31 -711 364 -1395 905 -1862 64 -55 168 -137 231 -182
l114 -81 -29 -13 c-40 -17 -54 -16 -54 3 0 17 -24 15 -77 -8 -28 -12 -28 -12
17 -16 l45 -4 -39 -19 c-40 -19 -48 -17 -59 15 -4 12 -67 -12 -67 -25 0 -5 -3
-8 -8 -8 -23 4 -32 -4 -32 -30 0 -22 6 -30 25 -35 21 -5 25 -12 25 -41 0 -18
5 -37 10 -40 19 -12 10 -24 -25 -31 -19 -3 -35 -10 -35 -15 0 -10 35 -30 42
-24 3 3 13 -4 23 -15 24 -27 43 -25 51 4 l6 24 45 -25 c24 -14 47 -32 50 -39
3 -9 22 -14 54 -14 44 0 51 -3 59 -25 5 -14 16 -25 22 -24 7 1 25 -1 41 -5 17
-5 33 -4 42 4 9 7 27 9 47 5 58 -11 68 -16 68 -30 0 -19 89 -32 100 -15 9 14
106 5 116 -11 3 -5 27 -9 55 -9 27 0 49 -4 49 -9 0 -16 91 -25 112 -12 25 16
95 14 105 -3 10 -17 111 -28 116 -12 4 12 86 9 102 -4 19 -15 105 -18 113 -5
8 14 102 9 102 -6 0 -11 108 -10 115 2 8 12 105 12 105 -1 0 -12 107 -14 112
-1 6 15 99 20 105 5 3 -9 18 -11 56 -7 29 3 54 9 57 13 10 14 99 18 104 5 6
-17 95 -8 117 11 17 15 99 19 99 6 0 -15 72 -12 103 3 17 8 50 15 74 15 23 0
43 4 43 9 0 14 102 24 111 10 10 -17 88 -3 108 21 22 26 111 39 111 16 0 -13
5 -14 26 -6 14 6 35 10 47 10 13 0 26 9 32 22 9 21 17 23 75 22 36 -1 59 1 53
3 -29 10 -11 39 37 60 l50 22 0 -25 c0 -26 20 -32 42 -11 7 6 20 13 28 15 19
5 40 22 40 33 0 4 -16 11 -35 15 -33 6 -34 7 -18 30 8 13 13 35 11 48 -4 19 0
26 19 30 17 5 23 13 23 34 0 23 -8 33 -40 51 -44 25 -67 23 -72 -6 -3 -18 -5
-18 -43 4 l-40 23 38 0 c45 0 41 14 -9 30 -30 10 -37 10 -48 -5 -8 -12 -19
-15 -39 -10 -15 4 -29 11 -32 15 -3 5 54 53 127 107 171 127 350 293 458 422
46 56 89 109 93 117 5 9 -24 -6 -64 -33 -251 -169 -416 -251 -719 -359 -173
-62 -287 -89 -490 -118 -281 -40 -288 -40 -261 3 6 9 5 21 -2 33 -10 15 -2 38
47 135 32 65 89 173 127 239 38 67 69 128 69 136 0 8 -16 33 -35 55 -19 23
-35 47 -35 55 0 20 189 303 279 418 117 150 192 234 353 397 340 345 723 614
1116 784 l137 59 5 -128 6 -127 2 143 c1 78 1 142 0 141 -2 0 -46 -17 -98 -38z"/>
</g>
</svg>
